<svg xmlns="http://www.w3.org/2000/svg" viewBox="0 0 1440 320">
  <path fill="#388E3C" fill-opacity="1" d="M0,64L26.7,58.7C53.3,53,107,43,160,85.3C213.3,128,267,224,320,245.3C373.3,267,427,213,480,176C533.3,139,587,117,640,122.7C693.3,128,747,160,800,192C853.3,224,907,256,960,240C1013.3,224,1067,160,1120,144C1173.3,128,1227,160,1280,170.7C1333.3,181,1387,171,1413,165.3L1440,160L1440,320L1413.3,320C1386.7,320,1333,320,1280,320C1226.7,320,1173,320,1120,320C1066.7,320,1013,320,960,320C906.7,320,853,320,800,320C746.7,320,693,320,640,320C586.7,320,533,320,480,320C426.7,320,373,320,320,320C266.7,320,213,320,160,320C106.7,320,53,320,27,320L0,320Z"></path>
</svg>